<svg width="600" height="500" viewBox="0 0 709 511" fill="none" xmlns="http://www.w3.org/2000/svg">
<g clip-path="url(#clip0)">
<path opacity="0.1" d="M239.703 510.713C274.815 510.713 303.279 506.139 303.279 500.496C303.279 494.853 274.815 490.279 239.703 490.279C204.59 490.279 176.126 494.853 176.126 500.496C176.126 506.139 204.59 510.713 239.703 510.713Z" fill="#FFC107"/>
<path opacity="0.1" d="M585.294 511C629.108 511 664.627 506.426 664.627 500.783C664.627 495.141 629.108 490.566 585.294 490.566C541.479 490.566 505.961 495.141 505.961 500.783C505.961 506.426 541.479 511 585.294 511Z" fill="#FFC107"/>
<path opacity="0.1" d="M9.03012 220.789H75.2488V311.095H13.8779C13.7148 312.022 13.5582 312.956 13.3886 313.89H75.2488V386.72C75.1379 386.687 75.04 386.648 74.9356 386.609C73.187 385.917 71.4515 385.186 69.7159 384.402L68.6067 383.9C66.8668 383.077 65.1269 382.207 63.387 381.288C62.7802 380.968 62.1734 380.635 61.5731 380.296C51.9139 374.882 43.139 368.022 35.5528 359.954C35.331 359.738 35.1222 359.51 34.9004 359.301C33.8434 358.152 32.8059 356.99 31.8012 355.802L30.692 354.496C29.5045 353.04 28.3561 351.545 27.2404 350.03C27.0773 349.809 26.9207 349.587 26.7511 349.378C22.2135 343.083 18.4458 336.266 15.5287 329.075C15.4373 328.859 15.359 328.624 15.2742 328.422C14.3782 326.115 13.5843 323.787 12.8927 321.436C12.5926 320.451 12.3055 319.478 12.0576 318.453C11.9662 318.153 11.8879 317.859 11.8161 317.565C8.11014 303.092 7.67299 288.057 7.67299 273.127C7.67299 271.383 7.67299 269.634 7.67299 267.904C7.67299 261.865 7.74476 255.787 7.84915 249.716C7.84915 248.143 7.9144 246.576 7.94702 244.996C8.03837 240.987 8.16886 236.979 8.3385 232.971C8.37765 231.854 8.42985 230.745 8.48857 229.635C8.48857 228.995 8.52119 228.355 8.58644 227.715C8.74303 225.391 8.87353 223.087 9.03012 220.789Z" fill="#FFC107"/>
<path opacity="0.1" d="M75.2488 120.239H38.9261C44.8305 110.992 51.2818 102.107 58.2455 93.6296C63.6414 86.9968 69.3374 80.5337 75.2488 74.3057V120.239Z" fill="#FFC107"/>
<path opacity="0.1" d="M75.2488 123.033V217.995H9.23891C9.23891 217.72 9.28458 217.44 9.30415 217.166C9.36287 216.415 9.4216 215.664 9.48684 214.92C9.55861 214.045 9.63691 213.164 9.72173 212.308C9.80655 211.453 9.8979 210.409 9.99577 209.462C10.0936 208.515 10.185 207.556 10.2959 206.609C10.4068 205.663 10.5047 204.716 10.6221 203.776C10.7396 202.836 10.844 201.883 10.9679 200.943C11.0658 200.159 11.1702 199.382 11.2746 198.599C11.4247 197.496 11.5813 196.386 11.7509 195.289C11.7509 195.126 11.7966 194.956 11.8227 194.799C13.0135 186.771 14.6362 178.812 16.6835 170.958C18.8266 162.719 21.5633 154.646 24.872 146.803C28.3885 138.598 32.5059 130.664 37.1905 123.066L75.2488 123.033Z" fill="#FFC107"/>
<path opacity="0.1" d="M91.058 220.782V311.095H232.493V220.782H91.058ZM91.058 313.883V391.44C91.8671 391.61 92.6696 391.773 93.4656 391.91C94.5487 392.119 95.6253 392.308 96.7279 392.471C96.9367 392.504 97.152 392.537 97.3804 392.556C97.811 392.628 98.2547 392.687 98.6853 392.745C99.7749 392.896 100.858 393.02 101.948 393.118C102.463 393.17 102.985 393.216 103.507 393.255L104.766 393.353C105.451 393.405 106.13 393.444 106.802 393.464C107.22 393.464 107.637 393.503 108.068 393.516C108.394 393.516 108.72 393.516 109.06 393.516C109.399 393.516 109.882 393.516 110.293 393.516C110.854 393.516 111.415 393.516 111.97 393.516H112.72C113.281 393.516 113.842 393.516 114.397 393.464H114.436C114.821 393.464 115.212 393.464 115.604 393.411C115.712 393.418 115.821 393.418 115.93 393.411C116.256 393.411 116.582 393.411 116.896 393.366H117.124L119.31 393.196C120.027 393.131 120.752 393.046 121.482 392.967L122.97 392.791C129.022 391.943 135.007 390.669 140.88 388.979C154.073 385.297 166.979 380.146 180.165 376.372C197.214 371.509 216.051 369.119 232.525 375.067V313.883H91.058ZM232.493 120.239V0.00652597C217.008 -0.161333 201.565 1.65081 186.54 5.39894C150.726 14.4015 118.592 33.9278 91.058 58.8661V120.233H98.1568V123.02H91.058V217.995H232.493V123.027H127.302V120.239H232.493ZM414.159 79.6263C405.298 79.3129 396.49 76.5057 388.523 72.1709C373.288 63.8799 361.12 51.0778 347.522 40.2734C319.271 17.7702 284.233 4.1912 248.289 0.82257V120.239H450.194L450.697 119.71L414.159 79.6263ZM432.552 76.3621L452.054 97.7751V70.7477C445.523 71.5572 439.801 73.4831 432.578 76.336L432.552 76.3621ZM452.054 410.698V313.883H410.498C410.387 313.472 410.277 313.054 410.146 312.636C410.27 313.054 410.374 313.472 410.492 313.883H248.315V383.9C249.855 385.042 251.375 386.243 252.882 387.464C254.507 388.77 256.112 390.147 257.724 391.499L259.348 392.843C260.125 393.496 260.908 394.149 261.697 394.763C263.263 396.034 264.844 397.287 266.441 398.523C267.23 399.176 268.039 399.763 268.842 400.377C281.582 410.124 295.023 418.919 309.053 426.693C312.198 428.434 315.371 430.133 318.573 431.792C320.706 432.882 322.853 433.965 325.006 435.017C328.242 436.596 331.504 438.12 334.793 439.586C365.111 453.203 397.169 462.548 430.053 467.351C437.356 468.431 444.688 469.279 452.047 469.897V410.692H452.7L452.054 410.698ZM248.315 123.027V217.995H452.08V123.027H248.315ZM248.315 220.782V311.095H452.08V220.782H248.315ZM467.896 70.6302V100.778L492.787 73.4505C484.54 72.1187 476.243 71.1677 467.896 70.5976V70.6302ZM467.896 220.815V311.095H666.082V220.782L467.896 220.815ZM665.358 417.867L666.056 313.883H467.896V470.935C480.661 471.472 493.446 471.32 506.195 470.479H506.417C512.507 470.096 518.568 469.538 524.601 468.807H524.738C556.925 465.059 588.397 456.657 618.171 443.862L665.358 417.867ZM704.297 235.654C703.553 233.898 702.777 232.155 701.987 230.431C700.513 227.167 698.953 223.994 697.348 220.821H681.885V311.095H720.98C720.961 285.53 714.495 259.417 704.316 235.621L704.297 235.654ZM681.885 313.916V403.354C692.898 392.791 702.202 380.707 708.903 366.893C716.961 350.259 720.648 332.247 720.948 313.903L681.885 313.916ZM681.885 194.499V218.001H695.9C691.66 209.911 686.988 202.054 681.904 194.466L681.885 194.499ZM547.477 88.3482C546.446 87.9565 545.415 87.5582 544.378 87.173C533.436 83.1302 522.256 79.7682 510.9 77.1063L472.809 118.933L472.078 119.71L472.567 120.246H608.137C589.256 107.242 568.9 96.5233 547.496 88.3155L547.477 88.3482ZM612.11 123.059H470.675L467.896 125.605V217.995H492.259H492.298H666.108V173.243C650.385 154.216 632.238 137.334 612.13 123.027L612.11 123.059Z" fill="#FFC107"/>
<path opacity="0.1" d="M75.2488 170.932V217.995H9.23891C9.23891 217.72 9.28458 217.44 9.30415 217.166C9.36287 216.415 9.4216 215.664 9.48684 214.92C9.55861 214.045 9.63691 213.164 9.72173 212.308C9.80655 211.453 9.8979 210.409 9.99577 209.462C10.0936 208.515 10.185 207.556 10.2959 206.609C10.4068 205.663 10.5047 204.716 10.6221 203.776C10.7396 202.836 10.844 201.883 10.9679 200.943C11.0658 200.159 11.1702 199.382 11.2746 198.599C11.4247 197.496 11.5813 196.386 11.7509 195.289C11.7509 195.126 11.7966 194.956 11.8227 194.799C13.0135 186.771 14.6362 178.812 16.6835 170.958L75.2488 170.932Z" fill="#FFC107"/>
<path opacity="0.1" d="M9.03012 220.789H75.2488V311.095H13.8779C13.7148 312.022 13.5582 312.956 13.3886 313.89H75.2488V386.72C75.1379 386.687 75.04 386.648 74.9356 386.609C73.187 385.917 71.4515 385.186 69.7159 384.402L68.6067 383.9C66.8668 383.077 65.1269 382.207 63.387 381.288C62.7802 380.968 62.1734 380.635 61.5731 380.296C51.9139 374.882 43.139 368.022 35.5528 359.954C35.331 359.738 35.1222 359.51 34.9004 359.301C33.8434 358.152 32.8059 356.99 31.8012 355.802L30.692 354.496C29.5045 353.04 28.3561 351.545 27.2404 350.03C27.0773 349.809 26.9207 349.587 26.7511 349.378C22.2135 343.083 18.4458 336.266 15.5287 329.075C15.4373 328.859 15.359 328.624 15.2742 328.422C14.3782 326.115 13.5843 323.787 12.8927 321.436C12.5926 320.451 12.3055 319.478 12.0576 318.453C11.9662 318.153 11.8879 317.859 11.8161 317.565C8.11014 303.092 7.67299 288.057 7.67299 273.127C7.67299 271.383 7.67299 269.634 7.67299 267.904C7.67299 261.865 7.74476 255.787 7.84915 249.716C7.84915 248.143 7.9144 246.576 7.94702 244.996C8.03837 240.987 8.16886 236.979 8.3385 232.971C8.37765 231.854 8.42985 230.745 8.48857 229.635C8.48857 228.995 8.52119 228.355 8.58644 227.715C8.74303 225.391 8.87353 223.087 9.03012 220.789Z" fill="#FFC107"/>
<path opacity="0.1" d="M140.848 136.625V217.995H91.058V136.625H98.1568V109.076H127.296V136.625H140.848Z" fill="#FFC107"/>
<path opacity="0.1" d="M140.848 220.782H91.0645V311.089H140.848V220.782Z" fill="#FFC107"/>
<path opacity="0.1" d="M91.058 313.89H140.848V388.966C134.974 390.654 128.99 391.926 122.937 392.772L121.45 392.954C120.719 393.039 119.995 393.111 119.277 393.183C118.559 393.255 117.816 393.307 117.091 393.353H116.863C116.55 393.353 116.211 393.392 115.904 393.398H115.571C115.18 393.398 114.788 393.437 114.397 393.451C113.842 393.483 113.287 393.49 112.72 393.496C112.478 393.496 112.25 393.496 112.009 393.496C111.448 393.496 110.893 393.496 110.332 393.496H109.099C108.766 393.496 108.446 393.496 108.1 393.496L106.841 393.451C106.189 393.451 105.484 393.379 104.805 393.333L103.553 393.242L101.993 393.098C100.897 393 99.8076 392.876 98.731 392.726L97.4261 392.543L96.7736 392.452C95.684 392.282 94.6074 392.099 93.5113 391.89C92.7087 391.753 91.9127 391.583 91.1037 391.42L91.058 313.89Z" fill="#FFC107"/>
<path opacity="0.1" d="M452.08 127.016H411.027V217.988H452.08V127.016Z" fill="#FFC107"/>
<path opacity="0.1" d="M452.087 220.782V311.095H248.315V272.141H356.853V295.121H411.027V220.782H452.087Z" fill="#FFC107"/>
<path opacity="0.1" d="M452.732 410.718H452.08V469.963C444.729 469.34 437.4 468.494 430.092 467.423C397.192 462.604 365.12 453.24 334.793 439.599C326.037 435.656 317.459 431.352 309.06 426.686C295.029 418.909 281.587 410.114 268.842 400.371C265.64 397.916 262.48 395.405 259.361 392.837C257.202 391.055 255.055 389.227 252.882 387.451C251.375 386.23 249.855 385.029 248.315 383.88V313.89H410.485C410.374 313.472 410.264 313.054 410.146 312.643C410.27 313.054 410.388 313.472 410.498 313.89H452.08V410.679C452.302 410.685 452.517 410.705 452.732 410.718Z" fill="#FFC107"/>
<path opacity="0.1" d="M559.149 120.239H532.398V111.922H544.391V87.1469C545.43 87.5256 546.466 87.9151 547.496 88.3155V111.922H559.149V120.239Z" fill="#FFC107"/>
<path opacity="0.1" d="M623.6 217.995H492.272C492.272 217.995 492.272 217.995 492.318 218.027L492.259 217.995H467.896V127.022H474.799V194.264H506.346V154.441H532.405V123.033H559.156V154.467H585.215V194.29H623.6V217.995Z" fill="#FFC107"/>
<path opacity="0.1" d="M467.896 220.782V311.095H623.6V220.782H467.896ZM665.867 417.403L666.082 345.918H623.6V313.929H467.896V470.936C480.661 471.472 493.446 471.32 506.195 470.479H506.417C512.507 470.096 518.568 469.538 524.602 468.807H524.739C556.925 465.059 588.397 456.657 618.172 443.862" fill="#FFC107"/>
<path opacity="0.1" d="M684.651 313.89H720.974C720.654 332.228 716.974 350.239 708.923 366.874C702.222 380.694 692.911 392.778 681.911 403.334V345.885H684.651V313.89Z" fill="#FFC107"/>
<path opacity="0.1" d="M720.993 311.095H684.651V235.621H704.316C714.495 259.417 720.961 285.53 720.993 311.095Z" fill="#FFC107"/>
<path opacity="0.1" d="M452.087 152.306H430.092V180.829H452.087V152.306Z" fill="#FFC107"/>
<path opacity="0.1" d="M452.087 211.427H430.092V217.995H452.087V211.427Z" fill="#FFC107"/>
<path opacity="0.1" d="M452.087 220.782H430.092V239.943H452.087V220.782Z" fill="#FFC107"/>
<path opacity="0.1" d="M452.087 270.548H430.092V299.07H452.087V270.548Z" fill="#FFC107"/>
<path opacity="0.1" d="M452.087 329.669H430.092V358.191H452.087V329.669Z" fill="#FFC107"/>
<path opacity="0.1" d="M452.08 410.679C452.302 410.679 452.517 410.679 452.732 410.718H452.08V417.344H430.092V388.789H452.08V410.679Z" fill="#FFC107"/>
<path opacity="0.1" d="M452.08 447.897V469.93C444.729 469.308 437.4 468.461 430.092 467.391V447.897H452.08Z" fill="#FFC107"/>
<path opacity="0.1" d="M342.577 309H248.315V311.095H342.577V309Z" fill="#FFC107"/>
<path opacity="0.1" d="M342.577 313.883H248.315V321.913H342.577V313.883Z" fill="#FFC107"/>
<path opacity="0.1" d="M342.577 348.235H248.315V361.148H342.577V348.235Z" fill="#FFC107"/>
<path opacity="0.1" d="M342.57 387.471V400.384H268.842C265.64 397.938 262.478 395.426 259.355 392.85C257.195 391.068 255.055 389.24 252.876 387.471H342.57Z" fill="#FFC107"/>
<path opacity="0.1" d="M342.57 426.699V439.599H334.786C326.039 435.652 317.463 431.345 309.06 426.68L342.57 426.699Z" fill="#FFC107"/>
<path opacity="0.1" d="M524.758 229.537H506.202V248.103H524.758V229.537Z" fill="#FFC107"/>
<path opacity="0.1" d="M122.983 143.03H104.427V161.596H122.983V143.03Z" fill="#FFC107"/>
<path opacity="0.1" d="M122.983 186.156H104.427V204.723H122.983V186.156Z" fill="#FFC107"/>
<path opacity="0.1" d="M122.983 229.282H104.427V247.849H122.983V229.282Z" fill="#FFC107"/>
<path opacity="0.1" d="M122.983 272.402H104.427V290.969H122.983V272.402Z" fill="#FFC107"/>
<path opacity="0.1" d="M122.983 315.528H104.427V334.095H122.983V315.528Z" fill="#FFC107"/>
<path opacity="0.1" d="M122.983 358.654H104.427V377.221H122.983V358.654Z" fill="#FFC107"/>
<path opacity="0.1" d="M595.596 229.537H577.04V248.103H595.596V229.537Z" fill="#FFC107"/>
<path opacity="0.1" d="M524.758 275.333H506.202V293.9H524.758V275.333Z" fill="#FFC107"/>
<path opacity="0.1" d="M595.596 275.333H577.04V293.9H595.596V275.333Z" fill="#FFC107"/>
<path opacity="0.1" d="M524.758 321.123H506.202V339.69H524.758V321.123Z" fill="#FFC107"/>
<path opacity="0.1" d="M595.596 321.123H577.04V339.69H595.596V321.123Z" fill="#FFC107"/>
<path opacity="0.1" d="M524.758 366.919H506.202V385.486H524.758V366.919Z" fill="#FFC107"/>
<path opacity="0.1" d="M595.596 366.919H577.04V385.486H595.596V366.919Z" fill="#FFC107"/>
<path opacity="0.1" d="M524.758 412.716H506.202V431.282H524.758V412.716Z" fill="#FFC107"/>
<path opacity="0.1" d="M595.596 412.716H577.04V431.282H595.596V412.716Z" fill="#FFC107"/>
<path opacity="0.1" d="M506.202 470.478V458.506H524.752V468.775L506.202 470.478Z" fill="#FFC107"/>
<path opacity="0.1" d="M11.7444 194.786V205.408H75.2488V194.786H11.7444ZM18.0733 204.742H12.8927V195.439H18.1124L18.0733 204.742ZM24.3957 204.742H19.1759V195.439H24.3957V204.742ZM30.705 204.742H25.4853V195.439H30.705V204.742ZM37.0274 204.742H31.8142V195.439H37.0339L37.0274 204.742ZM43.3432 204.742H38.1235V195.439H43.3432V204.742ZM49.6656 204.742H44.4459V195.439H49.6656V204.742ZM55.988 204.742H50.7683V195.439H55.988V204.742ZM62.3039 204.742H57.0842V195.439H62.3039V204.742ZM68.6197 204.742H63.4V195.439H68.6197V204.742ZM74.9356 204.742H69.7159V195.439H74.9356V204.742Z" fill="#FFC107"/>
<path opacity="0.1" d="M11.7444 225.692V236.313H75.2488V225.692H11.7444ZM18.0733 235.641H12.8927V226.364H18.1124L18.0733 235.641ZM24.3957 235.641H19.1759V226.364H24.3957V235.641ZM30.705 235.641H25.4853V226.364H30.705V235.641ZM37.0274 235.641H31.8142V226.364H37.0339L37.0274 235.641ZM43.3432 235.641H38.1235V226.364H43.3432V235.641ZM49.6656 235.641H44.4459V226.364H49.6656V235.641ZM55.988 235.641H50.7683V226.364H55.988V235.641ZM62.3039 235.641H57.0842V226.364H62.3039V235.641ZM68.6197 235.641H63.4V226.364H68.6197V235.641ZM74.9356 235.641H69.7159V226.364H74.9356V235.641Z" fill="#FFC107"/>
<path opacity="0.1" d="M11.7444 256.61V267.251H75.2488V256.61H11.7444ZM18.0733 266.559H12.8927V257.276H18.1124L18.0733 266.559ZM24.3957 266.559H19.1759V257.276H24.3957V266.559ZM30.705 266.559H25.4853V257.276H30.705V266.559ZM37.0274 266.559H31.8142V257.276H37.0339L37.0274 266.559ZM43.3432 266.559H38.1235V257.276H43.3432V266.559ZM49.6656 266.559H44.4459V257.276H49.6656V266.559ZM55.988 266.559H50.7683V257.276H55.988V266.559ZM62.3039 266.559H57.0842V257.276H62.3039V266.559ZM68.6197 266.559H63.4V257.276H68.6197V266.559ZM74.9356 266.559H69.7159V257.276H74.9356V266.559Z" fill="#FFC107"/>
<path opacity="0.1" d="M11.7444 287.528V298.137H75.2488V287.528H11.7444ZM18.0733 297.477H12.8927V288.187H18.1124L18.0733 297.477ZM24.3957 297.477H19.1759V288.187H24.3957V297.477ZM30.705 297.477H25.4853V288.187H30.705V297.477ZM37.0274 297.477H31.8142V288.187H37.0339L37.0274 297.477ZM43.3432 297.477H38.1235V288.187H43.3432V297.477ZM49.6656 297.477H44.4459V288.187H49.6656V297.477ZM55.988 297.477H50.7683V288.187H55.988V297.477ZM62.3039 297.477H57.0842V288.187H62.3039V297.477ZM68.6197 297.477H63.4V288.187H68.6197V297.477ZM74.9356 297.477H69.7159V288.187H74.9356V297.477Z" fill="#FFC107"/>
<path opacity="0.1" d="M12.0184 318.44C12.2729 319.439 12.56 320.437 12.8601 321.423V319.106H18.0798V328.389H15.2873C15.3721 328.604 15.4569 328.839 15.5417 329.042H75.2488V318.44H12.0184ZM24.4152 328.389H19.1955V319.106H24.4152V328.389ZM30.7246 328.389H25.5049V319.106H30.7246V328.389ZM37.047 328.389H31.8142V319.106H37.0339L37.047 328.389ZM43.3628 328.389H38.1431V319.106H43.3628V328.389ZM49.6852 328.389H44.4655V319.106H49.6852V328.389ZM56.0076 328.389H50.7879V319.106H56.0076V328.389ZM62.3235 328.389H57.1037V319.106H62.3235V328.389ZM68.6393 328.389H63.4196V319.106H68.6393V328.389ZM74.9552 328.389H69.7355V319.106H74.9552V328.389Z" fill="#FFC107"/>
<path opacity="0.1" d="M26.7641 349.358C26.9272 349.567 27.0838 349.802 27.2535 350.011H30.705V354.47C31.0769 354.914 31.4423 355.358 31.8207 355.775V349.985H37.0404V359.301H34.9264C35.1352 359.516 35.3375 359.745 35.5789 359.954H75.2684V349.358H26.7641ZM43.3433 359.301H38.1235V350.024H43.3433V359.301ZM49.6656 359.301H44.4459V350.024H49.6656V359.301ZM55.988 359.301H50.7683V350.024H55.988V359.301ZM62.3039 359.301H57.0842V350.024H62.3039V359.301ZM68.6198 359.301H63.4V350.024H68.6198V359.301ZM74.9356 359.301H69.7159V350.024H74.9356V359.301Z" fill="#FFC107"/>
<path opacity="0.1" d="M61.5992 380.27C62.193 380.609 62.7998 380.923 63.4131 381.262V380.936H68.6328V383.873L69.742 384.389V380.936H74.9617V386.583C75.0618 386.632 75.1668 386.672 75.2749 386.7V380.27H61.5992Z" fill="#FFC107"/>
<path opacity="0.1" d="M492.272 217.995H492.311H492.272ZM452.08 410.672H452.732H452.08ZM410.146 312.636C410.27 313.054 410.374 313.472 410.492 313.883C410.387 313.472 410.277 313.054 410.146 312.636ZM492.272 217.975H492.311H492.272ZM98.1829 120.22V123.007H127.329V120.22H98.1829ZM452.08 410.672H452.732H452.08ZM410.146 312.636C410.27 313.054 410.374 313.472 410.492 313.883C410.387 313.472 410.277 313.054 410.146 312.636ZM492.272 217.975H492.311H492.272ZM452.08 410.653H452.732H452.08ZM410.146 312.636C410.27 313.054 410.374 313.472 410.492 313.883C410.387 313.472 410.277 313.054 410.146 312.636Z" fill="#FFC107"/>
<path d="M301.178 247.862C301.178 247.862 298.607 247.503 298.607 243.756C298.607 240.008 296.767 233.01 296.767 233.01C296.767 232.977 295.175 220.821 292.976 218.889C290.778 216.957 287.952 205.61 287.952 205.61C287.952 205.61 287.47 199.454 286.484 198.129C285.499 196.804 284.168 193.559 282.204 188.93C280.24 184.302 272.052 181.096 272.052 181.096C272.052 181.096 257.247 172.505 253.052 169.704C252.671 169.474 252.314 169.205 251.989 168.901C251.258 167.942 248.074 167.922 248.074 167.922C247.741 165.82 247.421 163.405 247.317 161.218C247.317 160.983 247.317 160.748 247.284 160.513C251.962 157.746 255.486 153.383 257.208 148.226C257.287 147.978 257.352 147.717 257.424 147.469C257.704 147.376 257.962 147.227 258.181 147.029C258.4 146.831 258.575 146.589 258.696 146.32C259.074 145.478 259.081 144.492 259.551 143.709C260.099 142.782 261.143 142.285 261.965 141.587C264.04 139.824 264.575 136.854 264.477 134.151C264.411 131.964 264.059 129.757 264.196 127.584L264.235 127.035C264.274 126.709 264.32 126.382 264.379 126.069C264.699 124.45 265.397 122.922 265.788 121.316C266.18 119.71 266.219 117.902 265.305 116.518C263.968 114.488 261.182 114.083 258.735 113.874C255.962 113.639 253.483 113.946 251.708 111.641C250.877 110.437 249.943 109.307 248.915 108.266C248.55 107.927 245.001 105.759 245.001 105.616C241.536 104.01 237.61 103.709 233.941 104.767C232.101 105.302 230.366 106.177 228.5 106.614C224.474 107.568 219.842 106.536 216.423 108.841C214.517 110.146 213.376 112.222 212.306 114.246C211.436 115.913 210.553 117.578 209.657 119.24C208.215 121.976 206.747 124.757 206.14 127.786C206.012 128.445 205.934 129.113 205.905 129.784V129.816C205.905 130.058 205.905 130.299 205.905 130.541V130.848C205.905 131.076 205.905 131.298 205.944 131.501C205.983 131.703 205.977 131.768 205.996 131.905C206.016 132.042 206.048 132.349 206.088 132.558C206.127 132.767 206.205 133.133 206.283 133.42C206.316 133.544 206.362 133.661 206.401 133.779C206.466 134.001 206.544 134.216 206.629 134.432C206.675 134.543 206.721 134.66 206.773 134.771C206.871 135 206.988 135.222 207.105 135.424C207.158 135.515 207.197 135.6 207.249 135.685C207.431 135.989 207.631 136.281 207.849 136.56C209.246 138.303 211.301 139.413 212.821 141.045C212.821 141.11 212.821 141.176 212.821 141.234C212.821 141.417 212.821 141.593 212.821 141.776C212.902 145.416 213.87 148.981 215.642 152.161C217.413 155.341 219.935 158.04 222.986 160.023C222.986 160.271 223.019 160.526 223.032 160.774C223.159 162.711 223.135 164.656 222.96 166.59C222.695 166.277 222.362 166.028 221.987 165.861C221.612 165.693 221.205 165.613 220.794 165.624C220.514 165.611 220.233 165.635 219.959 165.696L219.9 165.65V165.709C218.465 166.062 216.697 167.557 215.007 171.807C215.007 171.807 209.865 177.604 205.951 177.362C202.036 177.121 192.125 183.394 192.125 183.394C192.125 183.394 182.455 189.675 180.38 196.072C179.221 199.7 177.83 203.25 176.218 206.701L164.265 231.345L162.059 250.898C162.059 250.898 163.279 259.593 163.038 260.919C162.797 262.244 168.055 274.197 168.055 274.197C168.055 274.197 185.431 304.743 192.529 306.31L193.038 305.951C193.342 306.11 193.664 306.23 193.997 306.31L195.459 305.279C195.547 306.428 195.51 307.584 195.348 308.726C194.369 311.742 195.713 331.425 197.423 335.283C199.132 339.141 198.526 389.729 198.526 389.729L198.284 394.195C198.284 394.195 198.284 394.338 198.343 394.586L198.284 395.644L198.46 395.735C198.643 397.152 198.584 398.589 198.284 399.985C197.671 401.944 197.423 407.48 197.423 407.48C197.423 407.48 192.536 438.738 194.852 445.018C197.168 451.298 199.139 458.179 199.139 458.179C199.139 458.179 201.586 466.013 199.256 467.352C196.927 468.69 190.304 470.936 191.668 474.2C192.908 477.216 197.612 485.298 198.31 486.48L198.252 487.1L197.292 497.499C197.448 498.873 197.82 500.212 198.395 501.469C199.446 503.734 201.488 506.084 205.37 505.83C206.022 505.784 206.779 505.706 207.51 505.608C214.615 504.654 223.365 501.482 223.365 501.482C222.911 501.193 222.494 500.849 222.125 500.457C221.776 500.118 221.499 499.712 221.312 499.263C221.125 498.814 221.031 498.332 221.036 497.845C221.14 495.952 217.597 486.93 216.716 484.71C216.579 484.39 216.507 484.208 216.507 484.208C216.507 484.208 224.585 475.76 223.241 468.272C223.241 468.272 214.302 463.049 217.245 460.183C220.187 457.317 225.446 449.085 225.446 449.085C225.446 449.085 225.688 418.304 225.446 413.708C225.194 410.518 225.346 407.309 225.896 404.157C225.994 403.68 226.112 403.217 226.236 402.76C230.305 403.368 234.414 403.68 238.528 403.694C240.029 403.694 241.556 403.694 243.095 403.602C243.095 404.037 243.115 404.507 243.154 405.012C243.493 412.637 244.126 426.007 244.642 430.975C245.373 438.098 249.411 457.291 249.411 457.291C249.411 457.291 241.706 462.24 250.755 474.435C250.755 474.435 250.755 478.854 250.155 479.494C249.514 481.586 248.998 483.713 248.609 485.866C248.23 488.164 248.074 490.488 248.687 491.696C250.155 494.581 258.963 494.346 258.963 494.346L259.179 494.307C260.842 494.135 262.522 494.295 264.123 494.778C265.723 495.261 267.212 496.057 268.502 497.121C271.85 499.81 284.553 498.629 291.43 497.774C294.125 497.434 295.926 497.121 295.926 497.121C296.013 496.816 296.044 496.497 296.017 496.181C295.945 494.49 294.621 490.782 285.643 487.472C285.643 487.472 277.2 481.792 277.317 476.844H277.141H276.162C276.874 476.805 277.33 476.844 277.33 476.844C277.33 476.844 274.022 464.766 275.373 463.787C276.723 462.808 272.678 449.425 272.678 449.425C272.678 449.425 270.362 426.967 270.238 425.394C270.243 424.044 270.448 422.702 270.845 421.411L270.238 409.099C270.238 409.099 270.121 405.006 270.238 403.674C270.218 402.518 270.124 401.364 269.957 400.22C269.899 399.763 269.84 399.287 269.775 398.817C272.939 398.014 274.994 397.27 274.994 397.27L274.629 354.411C277.317 349.188 277.813 337.731 277.8 329.603C277.8 324.381 277.565 320.516 277.565 320.516L281.239 314.516C281.239 314.516 282.087 307.335 280.743 305.762C280.149 305.05 280.416 304.312 280.906 303.705C281.16 303.504 281.428 303.32 281.708 303.157C281.708 303.157 281.669 303.098 281.623 303.013C281.88 302.799 282.153 302.605 282.439 302.432C282.439 302.432 281.134 300.408 282.302 299.553C283.398 300.298 284.377 300.859 285.121 301.316C285.069 301.793 285.016 302.067 285.016 302.067L285.329 301.414C286.047 301.819 286.484 302.067 286.484 302.067C286.484 302.067 292.239 290.596 292.115 288.906C291.991 287.215 296.03 280.092 296.03 280.092C296.03 280.092 296.519 276.352 298.725 274.785C300.93 273.218 300.434 261.865 300.434 261.865C300.434 261.865 301.047 255.95 302.515 253.535C303.983 251.119 301.178 247.862 301.178 247.862ZM191.068 242.828L191.179 245.564C190.526 244.513 190.057 243.756 190.057 243.756L191.068 242.828Z" fill="url(#paint0_linear)"/>
<path d="M286.798 297.112L285.388 303.118C285.388 303.118 274.101 297.353 272.065 290.028C270.029 282.704 275.471 279.923 275.471 279.923L285.988 284.381L286.798 297.112Z" fill="white"/>
<path opacity="0.1" d="M286.798 297.112L285.388 303.118C285.388 303.118 274.101 297.353 272.065 290.028C270.029 282.704 275.471 279.923 275.471 279.923L285.988 284.381L286.798 297.112Z" fill="black"/>
<path d="M223.45 501.521C223.45 501.521 213.01 505.359 205.833 505.843C202.023 506.097 200.02 503.76 198.989 501.508C198.426 500.256 198.062 498.923 197.912 497.558L198.845 487.211L199.341 481.701L214.589 477.738L216.749 484.345L216.951 484.847C217.819 487.054 221.297 496.031 221.192 497.904C221.188 498.384 221.28 498.86 221.464 499.303C221.648 499.746 221.92 500.147 222.262 500.483C222.612 500.878 223.011 501.227 223.45 501.521Z" fill="white"/>
<path d="M294.758 496.259C294.784 496.573 294.753 496.889 294.666 497.192C294.666 497.192 272.339 500.92 267.772 497.192C266.484 496.103 264.983 495.296 263.365 494.821C261.747 494.347 260.048 494.216 258.376 494.438C258.376 494.438 249.738 494.673 248.296 491.826C247.695 490.632 247.852 488.314 248.224 486.029C248.603 483.888 249.109 481.771 249.738 479.69L250.083 479.416L252.139 477.764L276.202 477.053H276.384C276.267 481.975 284.553 487.622 284.553 487.622C293.355 490.886 294.653 494.575 294.758 496.259Z" fill="white"/>
<path opacity="0.1" d="M294.758 496.259C294.78 496.573 294.747 496.89 294.66 497.192C294.66 497.192 272.339 500.92 267.772 497.192C266.485 496.104 264.985 495.297 263.368 494.823C261.751 494.348 260.053 494.217 258.383 494.438C258.383 494.438 249.738 494.673 248.302 491.826C247.702 490.625 247.852 488.314 248.224 486.029C251.551 486.362 256.804 487.191 258.865 489.169C261.984 492.179 267.269 495.182 270.512 495.417C273.05 495.58 288.233 496.063 294.758 496.259Z" fill="black"/>
<path opacity="0.1" d="M223.45 501.521C223.45 501.521 213.01 505.359 205.833 505.843C202.023 506.097 200.02 503.76 198.995 501.501C201.651 502.396 205.337 503.336 207.275 502.474C209.572 501.456 217.715 500.796 222.282 500.515C222.629 500.896 223.022 501.234 223.45 501.521Z" fill="black"/>
<path d="M238.939 192.175C230.327 188.826 219.248 177.76 222.014 172.59C222.629 171.285 222.994 169.877 223.091 168.438C223.269 166.484 223.295 164.52 223.169 162.562C222.975 159.356 222.59 156.165 222.014 153.005C222.014 153.005 248.902 153.612 247.336 157.575C246.88 158.737 246.808 160.754 246.932 163.013C247.056 165.272 247.382 167.824 247.721 169.985C248.191 172.949 248.661 175.208 248.661 175.208C248.661 175.208 247.017 177.512 246.051 177.636C245.085 177.76 251.297 196.947 238.939 192.175Z" fill="#CF6F80"/>
<path opacity="0.1" d="M216.932 484.847L216.729 485.069C208.691 475.342 198.969 487.465 198.969 487.465L198.826 487.211L199.322 481.701L214.57 477.738L216.729 484.345L216.932 484.847Z" fill="black"/>
<path opacity="0.1" d="M276.391 477.738C276.391 477.738 270.519 477.614 267.387 480.382C264.255 483.15 249.118 480.983 249.77 480.382C249.963 480.084 250.08 479.744 250.109 479.39L252.165 477.738L276.228 477.027C276.319 477.464 276.391 477.738 276.391 477.738Z" fill="black"/>
<path d="M226.934 401.35C226.497 402.432 226.164 403.553 225.942 404.699C225.398 407.836 225.247 411.029 225.492 414.204C225.733 418.774 225.492 449.398 225.492 449.398C225.492 449.398 220.331 457.565 217.454 460.444C214.576 463.323 223.326 468.494 223.326 468.494C224.631 475.936 216.723 484.345 216.723 484.345C208.684 474.617 198.963 486.747 198.963 486.747C198.963 486.747 193.678 477.607 192.36 474.343C191.042 471.079 197.521 468.82 199.798 467.495C202.075 466.17 199.687 458.355 199.687 458.355C199.687 458.355 197.762 451.507 195.479 445.26C193.195 439.012 197.997 407.911 197.997 407.911C197.997 407.911 198.245 402.388 198.839 400.462C199.138 399.072 199.198 397.641 199.015 396.232C198.976 395.755 198.93 395.357 198.897 395.089C198.865 394.821 198.839 394.697 198.839 394.697L198.93 394.541L202.192 388.456C202.192 388.456 228.5 397.518 226.934 401.35Z" fill="#FFC107"/>
<path d="M276.391 477.02C276.391 477.02 270.519 476.896 267.387 479.631C264.255 482.367 249.118 480.232 249.77 479.631C250.423 479.031 250.37 474.585 250.37 474.585C241.49 462.455 249.066 457.533 249.066 457.533C249.066 457.533 245.099 438.437 244.381 431.354C243.878 426.406 243.259 413.107 242.926 405.515C242.782 402.251 242.697 400.005 242.697 400.005L249.953 398.543L250.886 398.353L268.385 394.841C268.385 394.841 268.868 398.105 269.194 400.775C269.357 401.915 269.448 403.064 269.468 404.216C269.351 405.521 269.468 409.608 269.468 409.608L270.062 421.862C269.674 423.147 269.474 424.482 269.468 425.825C269.586 427.385 271.863 449.725 271.863 449.725C271.863 449.725 275.823 463.056 274.472 464.016C273.122 464.975 276.391 477.02 276.391 477.02Z" fill="#FFC107"/>
<path opacity="0.1" d="M247.336 157.575C246.88 158.737 246.808 160.754 246.932 163.013C243.33 165.183 239.19 166.292 234.987 166.214C230.783 166.135 226.687 164.872 223.169 162.569C222.975 159.361 222.59 156.167 222.014 153.005C222.014 153.005 248.902 153.599 247.336 157.575Z" fill="black"/>
<path d="M257.73 143.147C257.735 145.5 257.365 147.838 256.634 150.074C254.999 155.083 251.647 159.353 247.17 162.129C242.694 164.905 237.38 166.008 232.169 165.244C226.958 164.479 222.185 161.895 218.693 157.95C215.202 154.004 213.216 148.951 213.089 143.682C213.089 143.5 213.089 143.33 213.089 143.147C213.038 140.182 213.578 137.236 214.677 134.481C215.776 131.727 217.412 129.219 219.49 127.104C221.568 124.989 224.047 123.309 226.78 122.162C229.514 121.016 232.448 120.425 235.413 120.425C238.377 120.425 241.311 121.016 244.045 122.162C246.779 123.309 249.257 124.989 251.335 127.104C253.413 129.219 255.049 131.727 256.148 134.481C257.247 137.236 257.787 140.182 257.737 143.147H257.73Z" fill="#CF6F80"/>
<path opacity="0.1" d="M238.939 192.175C230.327 188.826 219.248 177.76 222.014 172.59C222.629 171.285 222.994 169.877 223.091 168.438L234.881 178.133L242.175 184.119L247.721 169.992C248.191 172.956 248.661 175.214 248.661 175.214C248.661 175.214 247.017 177.519 246.051 177.643C245.085 177.767 251.297 196.947 238.939 192.175Z" fill="black"/>
<path d="M269.429 235.021L259.583 400.514L246.743 401.356L213.493 305.396L218.948 191.47L220.096 167.4L234.881 179.549L242.182 185.536L247.891 170.997L258.507 180.254L269.429 235.021Z" fill="#FFC107"/>
<path opacity="0.1" d="M226.934 401.35C226.497 402.432 226.164 403.553 225.942 404.699C216.599 403.256 207.524 400.419 199.021 396.284L198.845 396.192L198.904 395.141L198.937 394.593L202.199 388.509C202.199 388.509 228.5 397.518 226.934 401.35Z" fill="black"/>
<path opacity="0.1" d="M250.103 404.725C247.714 405.131 245.305 405.406 242.887 405.548C242.743 402.283 242.658 400.038 242.658 400.038L249.914 398.575L250.103 404.725Z" fill="black"/>
<path opacity="0.1" d="M269.155 400.808C264.516 402.016 257.352 403.374 250.938 402.525L250.847 398.386L268.346 394.874C268.346 394.874 268.829 398.105 269.155 400.808Z" fill="black"/>
<path opacity="0.1" d="M250.821 403.282C224.07 407.852 199.569 394.75 199.569 394.75L199.804 390.31C199.804 390.31 200.411 339.983 198.728 336.125C197.044 332.267 195.733 312.701 196.686 309.698C197.638 306.695 193.208 261.663 193.208 261.663L192.49 243.383L166.222 232.736L177.966 208.241C179.553 204.807 180.917 201.274 182.051 197.665C184.093 191.307 193.573 185.059 193.573 185.059C193.573 185.059 203.295 178.818 207.138 179.053C210.981 179.288 216.018 173.53 216.018 173.53C219.737 164.044 223.104 168.34 223.104 168.34C223.104 168.79 223.104 168.34 222.921 169.744C221.616 180.156 244.022 213.059 244.342 213.64L246.475 265.645L248.635 331.457L250.821 403.282Z" fill="black"/>
<path d="M250.103 403.282C223.352 407.852 198.845 394.75 198.845 394.75L199.087 390.31C199.087 390.31 199.693 339.983 198.004 336.125C196.314 332.267 195.009 312.701 195.968 309.698C196.927 306.695 192.49 261.663 192.49 261.663L191.766 243.383L165.485 232.696L177.229 208.202C178.812 204.766 180.176 201.234 181.313 197.626C183.349 191.268 192.836 185.02 192.836 185.02C192.836 185.02 202.558 178.779 206.394 179.014C210.231 179.249 215.274 173.491 215.274 173.491C219 164.005 223.104 168.301 223.104 168.301C223.104 168.751 222.712 168.954 222.921 169.704C225.792 179.804 243.304 213.02 243.624 213.601L245.784 265.606L247.943 331.418L250.103 403.282Z" fill="white"/>
<path opacity="0.1" d="M242.893 215.083C240.016 213.882 224.774 196.471 224.774 196.471V192.508C224.22 191.202 220.925 191.999 218.25 192.913L219.398 168.843L220.703 169.926C223.561 180.019 242.56 214.502 242.893 215.083Z" fill="black"/>
<path d="M243.617 213.64C240.734 212.439 225.492 195.028 225.492 195.028V191.065C224.937 189.76 221.642 190.556 218.967 191.47L220.122 167.4L221.427 168.484C224.291 178.576 243.298 213.066 243.617 213.64Z" fill="white"/>
<path opacity="0.1" d="M199.569 300.474C199.928 300.474 218.171 298.554 218.171 298.554C218.171 298.554 229.218 320.287 228.493 325.575C227.769 330.863 226.458 335.544 222.014 334.715C217.571 333.886 198.101 335.368 198.101 335.368L199.569 300.474Z" fill="black"/>
<path d="M198.845 299.031C199.204 299.031 217.447 297.112 217.447 297.112C217.447 297.112 228.487 318.851 227.769 324.133C227.051 329.414 225.727 334.101 221.29 333.272C216.853 332.443 197.377 333.925 197.377 333.925L198.845 299.031Z" fill="white"/>
<path d="M212.593 288.827C212.593 288.827 229.335 297.83 229.694 300.578C230.053 303.327 221.173 299.377 219.254 298.9C217.992 298.596 216.707 298.395 215.411 298.3L202.617 298.646L212.593 288.827Z" fill="#CF6F80"/>
<path opacity="0.1" d="M238.221 216.206C239.194 216.206 239.983 215.417 239.983 214.443C239.983 213.47 239.194 212.681 238.221 212.681C237.249 212.681 236.46 213.47 236.46 214.443C236.46 215.417 237.249 216.206 238.221 216.206Z" fill="black"/>
<path d="M238.221 215.488C239.194 215.488 239.983 214.699 239.983 213.725C239.983 212.752 239.194 211.962 238.221 211.962C237.249 211.962 236.46 212.752 236.46 213.725C236.46 214.699 237.249 215.488 238.221 215.488Z" fill="#3F3D56"/>
<path opacity="0.1" d="M241.464 292.509C242.437 292.509 243.226 291.72 243.226 290.747C243.226 289.773 242.437 288.984 241.464 288.984C240.491 288.984 239.703 289.773 239.703 290.747C239.703 291.72 240.491 292.509 241.464 292.509Z" fill="black"/>
<path d="M241.464 291.785C242.437 291.785 243.226 290.995 243.226 290.022C243.226 289.048 242.437 288.259 241.464 288.259C240.491 288.259 239.703 289.048 239.703 290.022C239.703 290.995 240.491 291.785 241.464 291.785Z" fill="#3F3D56"/>
<path opacity="0.1" d="M239.977 254.358C240.95 254.358 241.738 253.568 241.738 252.595C241.738 251.621 240.95 250.832 239.977 250.832C239.004 250.832 238.215 251.621 238.215 252.595C238.215 253.568 239.004 254.358 239.977 254.358Z" fill="black"/>
<path d="M239.977 253.639C240.95 253.639 241.738 252.85 241.738 251.877C241.738 250.903 240.95 250.114 239.977 250.114C239.004 250.114 238.215 250.903 238.215 251.877C238.215 252.85 239.004 253.639 239.977 253.639Z" fill="#3F3D56"/>
<path d="M280.586 297.934C280.586 297.934 281.787 299.736 280.586 300.578C279.386 301.42 280.704 303.457 280.704 303.457C280.704 303.457 277.709 305.213 279.027 306.793C280.345 308.373 279.51 315.509 279.51 315.509L275.908 321.476C275.908 321.476 276.123 325.321 276.136 330.517C276.136 338.626 275.66 350.024 273.024 355.221L273.389 397.857C273.389 397.857 260.777 402.466 250.22 401.063L248.654 332.646C248.654 332.646 250.938 293.848 251.78 286.405C252.272 282.541 252.473 278.646 252.38 274.752C252.38 274.752 252.021 263.106 250.814 257.7C250.814 257.7 249.509 234.283 249.379 227.8C249.32 224.699 249.483 215.651 249.666 207.047C249.868 197.639 250.096 188.767 250.096 188.767L247.715 169.913C247.715 169.913 250.096 169.672 250.814 170.631C251.136 170.932 251.485 171.201 251.858 171.434C255.969 174.216 270.492 182.768 270.492 182.768C270.492 182.768 278.531 185.967 280.456 190.549C282.38 195.132 283.718 198.383 284.651 199.689C285.584 200.995 286.093 207.131 286.093 207.131C286.093 207.131 288.859 218.426 291.019 220.338C293.179 222.251 294.758 234.42 294.758 234.42L275.673 249.435C275.673 249.435 273.996 274.413 273.637 275.379C273.278 276.345 280.586 297.934 280.586 297.934Z" fill="white"/>
<path d="M281.31 297.934C281.31 297.934 282.504 299.736 281.31 300.578C280.116 301.42 281.421 303.457 281.421 303.457C281.421 303.457 278.446 305.233 279.751 306.813C281.056 308.393 280.234 315.528 280.234 315.528L276.632 321.495C276.632 321.495 276.847 325.34 276.867 330.537C276.867 338.645 276.391 350.044 273.755 355.24L274.114 397.877C274.114 397.877 261.482 402.486 250.938 401.082L249.379 332.665C249.379 332.665 251.662 293.867 252.504 286.425C252.997 282.561 253.196 278.665 253.098 274.772C253.098 274.772 252.739 263.125 251.538 257.72C251.538 257.72 250.233 234.302 250.096 227.82C250.038 224.719 250.207 215.671 250.383 207.066C250.586 197.659 250.814 188.787 250.814 188.787L247.669 169.678C247.669 169.678 250.814 169.678 251.538 170.651C251.857 170.955 252.207 171.224 252.582 171.454C256.693 174.235 271.223 182.787 271.223 182.787C271.223 182.787 279.255 185.986 281.18 190.569C283.105 195.152 284.442 198.403 285.382 199.709C286.321 201.014 286.817 207.151 286.817 207.151C286.817 207.151 289.584 218.445 291.743 220.358C293.903 222.271 295.462 234.413 295.462 234.413L276.378 249.429C276.378 249.429 274.701 274.406 274.335 275.372C273.97 276.338 281.31 297.934 281.31 297.934Z" fill="white"/>
<path opacity="0.1" d="M258.454 194.329L260.177 199.356L251.108 208.496C251.31 199.095 251.538 190.216 251.538 190.216L248.393 171.108C248.393 171.108 251.538 171.108 252.263 172.081C252.58 172.384 252.93 172.651 253.306 172.877L261.019 195.139L258.454 194.329Z" fill="black"/>
<path d="M257.73 192.887L259.459 197.913L250.39 207.053C250.592 197.646 250.821 188.774 250.821 188.774L247.669 169.665C247.669 169.665 250.821 169.665 251.538 170.638C251.858 170.94 252.208 171.209 252.582 171.441L260.301 193.696L257.73 192.887Z" fill="white"/>
<path opacity="0.1" d="M257.73 143.147C257.735 145.5 257.365 147.838 256.634 150.074C256.511 150.093 256.385 150.087 256.264 150.057C256.143 150.027 256.029 149.972 255.929 149.897C255.76 144.022 252.869 138.505 249.313 133.812C248.315 132.394 247.105 131.139 245.725 130.09C244.33 129.042 242.595 128.551 240.857 128.713C238.9 128.981 237.171 130.312 235.194 130.482C232.584 130.698 230.248 128.889 227.658 128.798C226.605 128.808 225.566 129.042 224.611 129.486C223.656 129.93 222.806 130.572 222.119 131.37C220.758 132.981 219.747 134.857 219.15 136.88C218.124 139.947 217.565 143.151 217.493 146.385C217.46 148.213 217.284 150.505 215.588 151.17C215.715 149.826 215.563 148.47 215.139 147.188C214.716 145.905 214.031 144.725 213.128 143.722L213.089 143.682C213.089 143.5 213.089 143.33 213.089 143.147C213.038 140.182 213.578 137.236 214.677 134.481C215.776 131.727 217.412 129.219 219.49 127.104C221.568 124.989 224.047 123.309 226.78 122.162C229.514 121.016 232.448 120.425 235.413 120.425C238.377 120.425 241.311 121.016 244.045 122.162C246.779 123.309 249.257 124.989 251.335 127.104C253.413 129.219 255.049 131.727 256.148 134.481C257.247 137.236 257.787 140.182 257.737 143.147H257.73Z" fill="black"/>
<path d="M244.655 107.679C241.264 106.083 237.408 105.781 233.811 106.83C232.004 107.365 230.301 108.233 228.467 108.671C224.552 109.617 219.985 108.593 216.625 110.884C214.759 112.19 213.637 114.253 212.593 116.257L209.983 121.231C208.56 123.954 207.125 126.722 206.531 129.718C205.938 132.715 206.296 136.07 208.195 138.479C209.578 140.235 211.621 141.339 213.121 142.99C214.02 143.995 214.702 145.175 215.124 146.455C215.546 147.736 215.7 149.09 215.574 150.433C217.277 149.78 217.44 147.482 217.48 145.654C217.552 142.42 218.111 139.216 219.137 136.149C219.732 134.125 220.744 132.249 222.106 130.639C222.794 129.841 223.643 129.199 224.599 128.756C225.554 128.312 226.592 128.077 227.645 128.067C230.255 128.158 232.597 129.96 235.181 129.744C237.138 129.581 238.874 128.243 240.844 127.982C242.582 127.817 244.318 128.309 245.712 129.359C247.091 130.406 248.3 131.662 249.294 133.08C252.856 137.774 255.747 143.278 255.916 149.166C256.654 149.708 257.717 149.003 258.083 148.167C258.448 147.332 258.461 146.353 258.924 145.556C259.459 144.636 260.484 144.146 261.286 143.454C263.322 141.698 263.831 138.74 263.752 136.057C263.674 133.374 263.152 130.652 263.661 128.014C263.968 126.395 264.659 124.881 265.038 123.281C265.416 121.682 265.462 119.887 264.568 118.509C263.263 116.485 260.516 116.087 258.122 115.898C255.401 115.663 252.967 115.963 251.232 113.672C250.417 112.476 249.5 111.353 248.491 110.316C248.145 109.977 244.655 107.822 244.655 107.679Z" fill="#512E4E"/>
<path opacity="0.1" d="M173.738 245.348L166.92 232.736L164.76 252.197C164.76 252.197 165.961 260.84 165.72 262.165C165.478 263.491 170.639 275.372 170.639 275.372C170.639 275.372 187.688 305.755 194.65 307.322L218.171 290.505L211.934 282.58C211.934 282.58 209.774 281.737 209.233 282.58C209.233 282.58 197.651 262.642 196.451 261.199C195.25 259.757 195.485 256.877 195.485 256.877C195.485 256.877 193.684 254.958 194.285 253.156C194.885 251.355 190.807 245.107 190.807 245.107L194.526 241.627L173.738 245.348Z" fill="black"/>
<path d="M167.279 231.299L165.478 232.736L163.319 252.197C163.319 252.197 164.519 260.84 164.278 262.165C164.036 263.491 169.204 275.372 169.204 275.372C169.204 275.372 186.246 305.755 193.208 307.322L216.736 290.505L210.492 282.58C210.492 282.58 208.332 281.737 207.791 282.58C207.791 282.58 196.209 262.642 195.009 261.199C193.808 259.757 194.05 256.877 194.05 256.877C194.05 256.877 192.249 254.958 192.849 253.156C193.449 251.355 189.365 245.107 189.365 245.107L193.084 241.627L167.279 231.299Z" fill="white"/>
<path opacity="0.1" d="M279.027 307.537C280.332 309.124 279.509 316.246 279.509 316.246L275.908 322.213C275.908 322.213 276.123 326.065 276.136 331.255L270.081 333.148C269.534 333.319 268.954 333.357 268.389 333.258C267.825 333.159 267.292 332.926 266.835 332.579C266.379 332.232 266.012 331.781 265.765 331.264C265.518 330.746 265.398 330.177 265.416 329.603L266.46 295.91L280.586 301.316C279.386 302.152 280.703 304.201 280.703 304.201C280.703 304.201 277.709 305.951 279.027 307.537Z" fill="black"/>
<path d="M279.751 306.813C281.056 308.399 280.234 315.528 280.234 315.528L276.632 321.495C276.632 321.495 276.847 325.34 276.867 330.537L270.701 332.463C270.165 332.629 269.597 332.666 269.045 332.568C268.492 332.471 267.971 332.243 267.524 331.903C267.077 331.563 266.718 331.122 266.476 330.615C266.234 330.108 266.117 329.551 266.134 328.99L267.184 295.192L281.317 300.598C280.11 301.434 281.428 303.477 281.428 303.477C281.428 303.477 278.446 305.233 279.751 306.813Z" fill="white"/>
<path d="M284.429 290.753C284.429 290.753 283.47 296.883 281.069 297.242C278.668 297.601 277.591 307.159 275.197 306.819C272.802 306.48 274.388 297.934 274.472 296.276C274.557 294.618 271.863 287.75 273.879 286.19C275.895 284.629 282.276 286.19 282.276 286.19L284.429 290.753Z" fill="#CF6F80"/>
<path opacity="0.1" d="M289.538 243.547L294.066 234.407C294.066 234.407 295.867 241.373 295.867 245.094C295.867 248.815 298.385 249.181 298.385 249.181C298.385 249.181 301.145 252.445 299.69 254.821C298.235 257.197 297.648 263.112 297.648 263.112C297.648 263.112 298.124 274.4 295.965 275.96C293.805 277.52 293.355 281.248 293.355 281.248C293.355 281.248 289.388 288.331 289.512 290.015C289.636 291.7 283.992 303.105 283.992 303.105C283.992 303.105 286.752 288.932 270.669 282.808C270.669 282.808 270.545 277.997 271.745 276.678C272.946 275.359 274.818 274.759 273.644 268.093C272.469 261.428 273.305 253.463 273.305 251.864C273.305 250.264 276.906 240.289 276.906 240.289L289.538 243.547Z" fill="black"/>
<path d="M291.495 233.101L295.449 234.407C295.449 234.407 297.257 241.373 297.257 245.094C297.257 248.815 299.775 249.181 299.775 249.181C299.775 249.181 302.535 252.445 301.08 254.821C299.625 257.197 299.044 263.112 299.044 263.112C299.044 263.112 299.521 274.4 297.361 275.96C295.201 277.52 294.718 281.248 294.718 281.248C294.718 281.248 290.758 288.331 290.882 290.015C291.006 291.7 285.356 303.105 285.356 303.105C285.356 303.105 288.122 288.932 272.032 282.808C272.032 282.808 271.915 277.997 273.115 276.678C274.316 275.359 276.188 274.759 275.014 268.093C273.84 261.428 274.675 253.463 274.675 251.864C274.675 250.264 278.276 240.289 278.276 240.289L291.495 233.101Z" fill="white"/>
<path opacity="0.1" d="M204.163 469.995C204.163 469.995 210.466 466.033 214.602 468.912C218.739 471.791 204.163 469.995 204.163 469.995Z" fill="black"/>
<path opacity="0.1" d="M253.137 457.742C253.137 457.742 258.715 457.024 263.4 462.07C268.085 467.116 253.137 457.742 253.137 457.742Z" fill="black"/>
<g opacity="0.1">
<path opacity="0.1" d="M261.299 142.024C260.497 142.716 259.466 143.212 258.931 144.133C258.474 144.923 258.461 145.896 258.096 146.744C257.73 147.593 256.667 148.285 255.929 147.75C255.76 141.874 252.863 136.358 249.307 131.657C248.313 130.239 247.104 128.983 245.725 127.936C244.328 126.886 242.59 126.394 240.851 126.559C238.894 126.826 237.171 128.158 235.194 128.321C232.584 128.543 230.242 126.735 227.652 126.643C226.599 126.654 225.561 126.889 224.606 127.334C223.652 127.779 222.804 128.423 222.119 129.222C220.757 130.83 219.745 132.704 219.15 134.726C218.125 137.793 217.566 140.997 217.493 144.231C217.454 146.052 217.284 148.324 215.601 149.003C215.64 149.485 215.64 149.97 215.601 150.452C217.297 149.799 217.467 147.502 217.506 145.674C217.578 142.44 218.137 139.236 219.163 136.168C219.759 134.145 220.77 132.268 222.132 130.658C222.818 129.861 223.667 129.219 224.621 128.776C225.575 128.332 226.613 128.097 227.665 128.086C230.275 128.178 232.623 129.979 235.207 129.764C237.165 129.601 238.9 128.262 240.864 128.001C242.603 127.837 244.341 128.328 245.738 129.379C247.117 130.426 248.326 131.681 249.32 133.1C252.876 137.794 255.773 143.297 255.942 149.186C256.68 149.728 257.743 149.023 258.109 148.187C258.474 147.351 258.487 146.372 258.944 145.576C259.479 144.655 260.51 144.166 261.312 143.474C263.348 141.717 263.857 138.76 263.779 136.077C263.779 135.992 263.779 135.907 263.779 135.829C263.655 138.153 263.035 140.523 261.299 142.024Z" fill="black"/>
<path opacity="0.1" d="M213.134 141.561C211.634 139.909 209.585 138.806 208.208 137.056C207.049 135.507 206.387 133.643 206.309 131.709C206.104 134.126 206.778 136.534 208.208 138.492C209.585 140.249 211.634 141.352 213.134 143.003C214.575 144.619 215.44 146.667 215.594 148.827C215.694 147.512 215.528 146.191 215.105 144.943C214.682 143.694 214.012 142.544 213.134 141.561Z" fill="black"/>
<path opacity="0.1" d="M265.051 121.852C264.666 123.451 263.981 124.972 263.668 126.585C263.482 127.662 263.414 128.757 263.465 129.849C263.487 129.227 263.555 128.607 263.668 127.995C263.981 126.376 264.666 124.861 265.051 123.262C265.275 122.38 265.348 121.466 265.266 120.559C265.226 120.995 265.154 121.427 265.051 121.852Z" fill="black"/>
</g>
<path opacity="0.1" d="M86.6017 496.54C121.714 496.54 150.178 491.965 150.178 486.323C150.178 480.68 121.714 476.106 86.6017 476.106C51.4895 476.106 23.0255 480.68 23.0255 486.323C23.0255 491.965 51.4895 496.54 86.6017 496.54Z" fill="#FFC107"/>
<path d="M88.6504 290.603H84.5595V382.764H88.6504V290.603Z" fill="#535461"/>
<path d="M114.358 382.483L114.103 386.635L113.738 392.51L113.588 394.952L113.229 400.828L113.072 403.269L112.707 409.145L108.583 475.78C108.404 478.647 107.14 481.337 105.048 483.305C102.955 485.272 100.193 486.367 97.3217 486.369H75.8817C73.0114 486.367 70.2494 485.272 68.1583 483.304C66.0672 481.337 64.8043 478.646 64.6267 475.78L60.5227 409.099L60.1573 403.224L60.0072 400.782L59.6418 394.906L59.4918 392.465L59.1264 386.589L58.8654 382.437C58.8201 381.638 58.9384 380.838 59.2131 380.086C59.4879 379.335 59.9132 378.647 60.4631 378.066C61.013 377.484 61.6757 377.022 62.4108 376.706C63.1458 376.39 63.9376 376.227 64.7376 376.229H108.59C109.387 376.236 110.174 376.406 110.902 376.729C111.631 377.052 112.286 377.521 112.826 378.107C113.367 378.693 113.781 379.384 114.045 380.136C114.308 380.889 114.415 381.688 114.358 382.483Z" fill="#3F3D56"/>
<path d="M114.103 386.635L113.738 392.491H59.4657L59.1003 386.635H114.103Z" fill="#9D9CB5"/>
<path d="M113.588 394.932L113.229 400.795H59.9811L59.6157 394.932H113.588Z" fill="#9D9CB5"/>
<path d="M113.072 403.243L112.713 409.099H60.4966L60.1312 403.243H113.072Z" fill="#9D9CB5"/>
<path d="M52.8562 325.144C76.6777 342.392 86.6213 369.367 86.6213 369.367C86.6213 369.367 57.9128 368.382 34.0848 351.134C10.2568 333.886 0.332756 306.917 0.332756 306.917C0.332756 306.917 29.0282 307.897 52.8562 325.144Z" fill="#FFC107"/>
<path d="M0.313187 306.917C0.313187 306.917 30.1178 323.467 39.6764 337.17C49.235 350.873 86.6213 369.367 86.6213 369.367" stroke="#535461" stroke-width="2" stroke-miterlimit="10"/>
<path d="M68.2348 290.401C81.1993 299.782 86.6213 314.464 86.6213 314.464C86.6213 314.464 70.9947 313.929 58.0237 304.547C45.0527 295.166 39.6438 280.477 39.6438 280.477C39.6438 280.477 55.2638 281.013 68.2348 290.401Z" fill="#FFC107"/>
<path d="M39.6438 280.477C39.6438 280.477 55.8641 289.487 61.0642 296.942C66.2643 304.397 86.6213 314.464 86.6213 314.464" stroke="#535461" stroke-width="2" stroke-miterlimit="10"/>
<path d="M105.445 313.72C90.5491 330.099 87.3977 351.506 87.3977 351.506C87.3977 351.506 108.401 346.349 123.283 329.962C138.166 313.576 141.33 292.176 141.33 292.176C141.33 292.176 120.341 297.34 105.445 313.72Z" fill="#FFC107"/>
<path d="M141.344 292.183C141.344 292.183 121.939 308.974 117.007 320.542C112.074 332.11 87.3977 351.506 87.3977 351.506" stroke="#535461" stroke-width="2" stroke-miterlimit="10"/>
<path d="M652.25 307.955C652.25 307.955 641.478 254.331 645.601 247.659C645.601 247.659 645.751 241.458 645.503 233.552C645.503 233.251 645.503 232.951 645.503 232.644C646.229 233.128 646.985 233.564 647.767 233.95C651.567 235.903 655.928 236.466 660.099 235.543L656.837 231.907C656.054 231.038 655.238 230.098 655.068 228.949C654.899 227.8 655.369 226.775 655.773 225.75C658.872 217.916 659.035 208.065 653.065 202.085C648.022 197.058 646.795 190.569 641.321 185.98C637.321 182.618 635.122 177.689 633.048 172.923C631.293 168.895 629.524 164.834 628.52 160.565C627.737 157.229 627.423 153.775 626.347 150.518C625.27 147.26 623.254 144.094 620.103 142.638C618.981 142.122 617.734 141.828 616.71 141.143C615.366 140.235 614.557 138.76 613.585 137.467C608.645 130.939 592.105 134.784 584.276 137.435C582.147 138.102 580.176 139.195 578.482 140.647L578.554 140.529C578.613 140.431 578.684 140.333 578.75 140.235C577.893 140.929 577.152 141.755 576.557 142.684C575.415 144.492 574.939 146.601 573.987 148.559C572.838 150.877 566.451 157.346 569.197 159.951C569.39 160.126 569.611 160.267 569.85 160.369C570.881 160.798 572.016 160.912 573.112 160.695L572.995 160.976C572.057 163.274 571.576 165.733 571.579 168.216C571.579 178.942 580.42 187.638 591.336 187.638C593.388 187.64 595.428 187.325 597.384 186.704C597.43 186.952 597.469 187.2 597.514 187.449C597.514 187.546 597.547 187.644 597.56 187.742L597.214 188.225C597.197 188.196 597.177 188.167 597.156 188.141L586.912 202.464C585.346 203.567 576.329 210.095 575.82 214.992C575.285 220.351 574.75 226.625 574.75 226.625L574.678 227.97C574.23 228.344 573.707 228.617 573.144 228.769C572.58 228.921 571.991 228.949 571.416 228.851C568.219 228.329 568.219 240.602 568.219 240.602C568.219 240.602 566.092 242.561 564.63 240.863C563.169 239.166 559.306 244.918 559.306 244.918L535.1 245.962L534.545 245.995L533.24 241.954C533.1 241.527 532.797 241.174 532.397 240.97C531.998 240.766 531.534 240.727 531.107 240.863C531.005 240.897 530.907 240.938 530.813 240.987L530.722 241.04L530.552 241.157L530.467 241.236C530.42 241.278 530.377 241.324 530.337 241.373L530.258 241.464L530.219 241.503C530.068 241.712 529.969 241.952 529.928 242.206C529.887 242.46 529.906 242.72 529.984 242.966L531.107 246.432C526.435 247.372 521.659 250.023 525.554 257.321L505.81 253.672L512.198 259.038L545.174 265.847C544.737 266.631 545.024 267.767 546.387 269.366C552.259 276.267 562.96 278.14 567.266 278.623C568.403 281.169 569.824 283.578 571.501 285.805L571.129 292.679C571.129 292.679 560.226 345.076 558.229 347.733C559.237 346.59 560.16 345.374 560.989 344.096C557.825 354.861 553.401 369.596 552.24 371.803C550.374 375.328 548.645 389.592 550.772 390.506C551.424 390.787 553.29 390.65 555.952 390.448V391.629L555.835 436.407C555.835 436.407 556.37 463.872 554.902 466.49C553.434 469.108 553.042 474.598 553.042 474.598C553.042 474.598 547.17 485.428 542.518 489.783C542.486 489.817 542.451 489.847 542.414 489.874L542.27 488.856C542.27 488.856 536.679 495.92 524.308 495.521C524.308 495.521 516.863 500.365 527.903 500.626C538.943 500.888 553.042 500.235 553.042 500.235C553.042 500.235 562.888 485.22 571.135 487.178V498.557H573.66V486.995C574.831 486.224 575.834 485.223 576.606 484.052C577.379 482.882 577.906 481.567 578.156 480.186C578.372 478.763 578.214 477.309 577.696 475.966C577.179 474.623 576.321 473.438 575.207 472.528C574.706 472.076 574.304 471.524 574.027 470.908C573.75 470.293 573.603 469.626 573.595 468.951L573.504 469.029C573.504 468.801 573.445 468.566 573.419 468.324C572.695 462.449 571.788 450.326 574.991 441.356C579.382 429.056 580.713 411.926 577.516 401.728C576.485 398.469 575.637 395.154 574.978 391.799C574.9 391.375 574.828 390.97 574.763 390.591C576.948 390.887 579.112 391.323 581.242 391.897C588.647 393.94 604.848 394.319 618.68 394.208C618.713 394.586 618.752 394.985 618.798 395.383C619.044 398.151 619.56 400.888 620.338 403.556C622.073 408.779 622.869 431.805 622.869 431.805C622.869 431.805 625.107 450.737 623.887 458.44C623.235 462.723 622.582 467.025 622.21 471.347V471.432C622.21 471.432 618.543 481.877 615.862 487.55C615.797 487.694 615.725 487.837 615.659 487.975C614.945 488.04 614.241 488.195 613.565 488.438C613.565 488.438 609.97 495.619 606.388 496.807C602.806 497.996 603.993 501.906 612.104 500.47C620.214 499.034 632.46 497.858 632.46 497.858L632.989 490.534L635.481 487.413L634.829 494.718L637.484 494.196L637.132 485.311L641.21 480.206C641.21 480.206 646.136 475.819 638.815 467.188V467.378C638.737 467.254 638.665 467.123 638.581 466.999V466.96C637.367 465.08 636.401 461.574 638.169 455.352C641.367 444.111 643.226 433.907 643.226 433.907C643.226 433.907 650.364 406.573 641.784 393.64H642.163C641.283 391.82 640.662 389.886 640.316 387.895C640.273 387.66 640.233 387.418 640.199 387.17C646.547 386.805 652.778 385.656 657.861 383.175C657.841 383.149 654.781 318.283 652.25 307.955ZM571.651 262.714V262.844L570.346 262.91L571.651 262.714ZM567.175 263.334C566.96 263.382 566.759 263.478 566.588 263.615C566.027 264.409 565.674 265.332 565.563 266.298L563.528 265.841C563.528 265.841 562.099 265.534 560.043 265.188L559.071 264.209C561.746 263.987 564.526 263.66 567.175 263.334Z" fill="url(#paint1_linear)"/>
<path d="M634.529 485.402L633.752 494.653L636.356 494.131L635.964 484.097L634.529 485.402Z" fill="#1D2366"/>
<path d="M575.135 441.48C571.996 450.423 572.884 462.494 573.588 468.357C573.849 470.524 574.091 471.843 574.091 471.843C574.091 471.843 569.4 482.536 569.008 482.941C568.617 483.346 555.202 491.539 555.202 491.539L545.826 497.016C545.826 497.016 536.313 492.845 540.874 491.408C541.806 491.034 542.645 490.462 543.334 489.731C547.901 485.389 553.636 474.598 553.636 474.598C553.636 474.598 554.028 469.121 555.463 466.516C556.898 463.911 556.376 436.538 556.376 436.538L556.487 391.916V386.1L574.332 386.23C574.445 388.205 574.702 390.169 575.102 392.106C575.743 395.449 576.573 398.753 577.588 402.003C580.733 412.18 579.428 429.226 575.135 441.48Z" fill="#FFB0B1"/>
<path opacity="0.1" d="M574.091 471.843C574.091 471.843 569.4 482.536 569.008 482.941C568.617 483.346 555.202 491.539 555.202 491.539L545.826 497.016C545.826 497.016 536.313 492.845 540.874 491.408C541.806 491.034 542.645 490.462 543.334 489.731L543.738 492.584L546.864 492.453L573.615 468.37C573.85 470.524 574.091 471.843 574.091 471.843Z" fill="black"/>
<path d="M573.765 468.977L546.864 493.223L543.738 493.354L543.086 488.784C543.086 488.784 537.618 495.822 525.469 495.43C525.469 495.43 518.175 500.254 528.986 500.515C539.797 500.777 553.604 500.124 553.604 500.124C553.604 500.124 563.247 485.109 571.318 487.067V498.407H573.797V486.963C574.95 486.186 575.934 485.184 576.69 484.018C577.445 482.851 577.957 481.543 578.195 480.173C578.41 478.762 578.258 477.319 577.754 475.984C577.25 474.648 576.411 473.465 575.318 472.548C574.829 472.09 574.44 471.537 574.173 470.923C573.906 470.309 573.767 469.647 573.765 468.977Z" fill="#1D2366"/>
<path d="M637.008 455.424C635.273 461.626 636.219 465.119 637.406 466.992V467.032C638.929 469.345 639.988 471.932 640.525 474.65L640.629 475.238L628.389 493.093L621.747 495.704C621.747 495.704 611.066 492.055 613.017 491.01C613.506 490.756 614.27 489.398 615.144 487.524C617.754 481.877 621.356 471.458 621.356 471.458V471.373C621.734 467.071 622.334 462.782 623 458.512C624.194 450.828 622.001 431.968 622.001 431.968C622.001 431.968 621.218 409.034 619.522 403.818C618.756 401.166 618.247 398.446 618.002 395.696C617.65 392.432 617.571 389.742 617.571 389.742C617.571 389.742 624.605 379.95 637.497 390.526C638.528 391.369 639.436 392.354 640.192 393.451C649.098 406.129 641.928 434.057 641.928 434.057C641.928 434.057 640.133 444.215 637.008 455.424Z" fill="#FFB0B1"/>
<path opacity="0.1" d="M640.649 475.238L628.409 493.093L621.767 495.704C621.767 495.704 611.086 492.055 613.037 491.01C613.526 490.756 614.289 489.398 615.164 487.524C619.685 487.485 622.028 491.794 622.028 491.794L627.756 490.88C627.756 490.88 635.312 476.021 637.008 475.114C638.705 474.206 637.269 468.331 637.269 468.331V466.836C637.315 466.888 637.354 466.947 637.406 466.999V467.038C638.929 469.351 639.988 471.939 640.525 474.657L640.649 475.238Z" fill="black"/>
<path d="M622.419 492.179C622.419 492.179 619.157 486.186 612.906 488.399C612.906 488.399 609.389 495.58 605.873 496.742C602.356 497.904 603.53 501.821 611.477 500.391C619.424 498.962 631.403 497.78 631.403 497.78L631.925 490.475L640.003 480.18C640.003 480.18 644.818 475.812 637.654 467.214V468.709C637.654 468.709 639.09 474.585 637.393 475.492C635.697 476.4 628.167 491.265 628.167 491.265L622.419 492.179Z" fill="#1D2366"/>
<path opacity="0.1" d="M574.352 386.217C574.464 388.192 574.722 390.156 575.122 392.093C567.775 391.015 560.957 391.551 556.487 391.903V386.087L574.352 386.217Z" fill="black"/>
<path opacity="0.1" d="M640.916 395.076C640.916 395.076 630.477 395.585 618.028 395.69C617.676 392.426 617.597 389.736 617.597 389.736C617.597 389.736 624.631 379.943 637.524 390.519C638.555 391.363 639.462 392.347 640.218 393.444C640.42 394.001 640.654 394.545 640.916 395.076Z" fill="black"/>
<path d="M640.916 393.901C640.916 393.901 595.192 396.114 581.255 392.204C567.318 388.293 553.506 391.681 551.424 390.774C549.343 389.867 551.033 375.654 552.86 372.135C554.687 368.617 564.708 333.031 564.708 333.031L574.352 282.723L584.511 279.923L585.228 279.72L602.93 274.837L615.901 271.253C615.901 271.253 641.693 372.005 639.481 379.434C638.678 382.279 638.548 385.272 639.103 388.176C639.44 390.159 640.051 392.085 640.916 393.901Z" fill="#1D2366"/>
<path d="M540.737 248.319C540.737 248.319 531.602 258.111 538.519 263.569C545.435 269.027 549.982 264.091 549.982 264.091L540.737 248.319Z" fill="#C7DAF5"/>
<path opacity="0.1" d="M540.737 248.319C540.737 248.319 531.602 258.111 538.519 263.569C545.435 269.027 549.982 264.091 549.982 264.091L540.737 248.319Z" fill="black"/>
<path d="M614.537 183.936C614.537 183.936 613.467 184.955 611.856 186.456C609.559 188.604 606.16 191.744 603.145 194.375C598.969 198.011 595.524 200.681 596.758 198.403C597.991 196.125 597.756 192.155 597.143 188.441C597.097 188.193 597.058 187.945 597.012 187.703C596.504 184.975 595.831 182.28 594.996 179.634C594.996 179.634 601.742 170.912 605.474 167.472C606.864 166.166 607.836 165.631 607.895 166.538C607.96 167.759 608.874 170.455 610.009 173.315C610.042 173.406 610.074 173.491 610.114 173.582C610.87 175.541 611.725 177.552 612.475 179.288C613.624 181.952 614.537 183.936 614.537 183.936Z" fill="#FFB0B1"/>
<path opacity="0.1" d="M610.114 173.582C609.48 176.994 607.941 180.173 605.66 182.787C603.378 185.401 600.436 187.353 597.143 188.441C596.624 185.461 595.907 182.519 594.996 179.634C594.996 179.634 607.699 163.215 607.895 166.538C607.941 167.798 608.933 170.592 610.114 173.582Z" fill="black"/>
<path opacity="0.1" d="M595.877 192.828L597.521 190.51C597.521 190.51 598.611 197.156 602.617 194.225C606.623 191.294 606.819 216.284 606.819 216.284L602.519 280.608L571.448 278.747L572.329 247.666L575.846 231.998L584.543 209.221L589.717 201.693L595.877 192.828Z" fill="black"/>
<path d="M606.819 216.682L602.904 274.843L602.493 281.006L585.17 279.968L584.517 279.929L571.468 279.146L572.349 248.058L575.866 232.39L584.563 209.612L589.737 202.085L595.896 193.187L597.541 190.876C597.541 190.876 598.63 197.522 602.636 194.591L602.721 194.532C606.636 192.051 606.819 216.682 606.819 216.682Z" fill="#1D2366"/>
<path d="M576.303 226.945C576.303 226.945 574.743 230.209 571.612 229.68C568.48 229.152 568.486 241.431 568.486 241.431C568.486 241.431 566.405 243.39 564.969 241.693C563.534 239.995 559.75 245.734 559.75 245.734L536.039 246.778C536.039 246.778 546.59 251.603 544.521 266.2C544.521 266.2 580.342 263.98 581.516 260.592C582.69 257.204 576.303 226.945 576.303 226.945Z" fill="white"/>
<path opacity="0.03" d="M576.303 226.945C576.303 226.945 574.743 230.209 571.612 229.68C568.48 229.152 568.486 241.431 568.486 241.431C568.486 241.431 566.405 243.39 564.969 241.693C563.534 239.995 559.75 245.734 559.75 245.734L536.039 246.778C536.039 246.778 546.59 251.603 544.521 266.2C544.521 266.2 580.342 263.98 581.516 260.592C582.69 257.204 576.303 226.945 576.303 226.945Z" fill="black"/>
<path d="M507.396 254.449L513.647 259.789L565.1 270.607L558.719 264.091L507.396 254.449Z" fill="white"/>
<path d="M595.975 194.884C595.12 196.19 592.673 202.875 590.631 208.711C588.928 213.575 587.506 217.851 587.506 217.851C587.506 217.851 584.185 239.486 582.488 243.396C580.792 247.307 581.712 262.557 581.712 262.557L575.389 300.219C575.389 300.219 572.525 319.641 568.101 331.242C563.736 342.66 558.875 348.013 558.725 348.183C560.683 345.532 571.351 293.345 571.351 293.345L574.874 227.526C574.874 227.526 575.389 221.272 575.911 215.925C576.433 210.578 587.003 203.28 587.003 203.28L597.195 188.78C598.219 190.151 597.534 192.541 595.975 194.884Z" fill="white"/>
<path d="M569.4 279.472C569.4 279.472 554.393 278.819 547.125 270.084C539.856 261.349 563.926 266.598 563.926 266.598L570.183 268.034L569.4 279.472Z" fill="#FFB0B1"/>
<path opacity="0.1" d="M639.481 379.441C638.678 382.285 638.548 385.278 639.103 388.182C622.732 389.344 605.22 384.918 605.22 384.918C601.958 387.921 593.365 392.347 593.365 392.347L588.68 334.245C585.685 326.411 584.511 285.367 584.511 285.367C584.511 285.367 584.778 283.219 585.163 280.001C585.163 279.923 585.163 279.838 585.196 279.759C586.364 270.77 588.68 253.894 589.815 251.616C591.381 248.482 585 240.145 585 240.145L587.904 215.37L588.256 212.38C594.376 209.645 599.067 200.91 599.067 200.91L602.669 194.597C606.584 192.084 606.786 216.715 606.786 216.715L602.871 274.876L615.842 271.292C615.842 271.292 641.693 372.011 639.481 379.441Z" fill="black"/>
<path d="M656.282 383.456C638.437 392.321 606.003 384.108 606.003 384.108C602.741 387.112 594.148 391.538 594.148 391.538L589.456 333.435C586.468 325.601 585.294 284.558 585.294 284.558C585.294 284.558 589.065 253.933 590.631 250.806C591.088 249.892 590.866 248.534 590.324 247.072C587.662 240.112 586.683 232.62 587.466 225.208L588.719 214.561L589.065 211.577C595.192 208.835 599.883 200.1 599.883 200.1L603.145 194.382L609.148 183.845L611.993 178.857L612.475 179.295L616.162 182.637C616.162 182.637 617.728 183.943 620.077 185.901C625.185 190.21 634.013 197.796 638.568 202.438C642.574 206.524 643.839 222.421 644.205 234.387C644.446 242.267 644.303 248.443 644.303 248.443C640.264 255.095 650.827 308.504 650.827 308.504C653.287 318.825 656.282 383.456 656.282 383.456Z" fill="white"/>
<path opacity="0.03" d="M622.028 199.97C622.028 199.97 609.781 223.296 611.203 232.161C612.626 241.027 616.671 251.061 614.72 253.404C614.05 254.292 613.183 255.013 612.188 255.51C611.193 256.007 610.097 256.268 608.985 256.27C607.027 256.401 601.808 260.05 601.808 260.442C601.808 260.834 596.986 260.834 592.673 262.662C588.36 264.49 581.992 265.528 581.992 265.528C581.992 265.528 569.595 265.136 568.441 266.311C567.286 267.486 566.098 274.517 568.571 280.125C571.044 285.733 573.791 289.917 575.866 290.681C577.94 291.445 591.107 287.032 601.788 285.987C612.469 284.943 624.063 276.476 624.063 276.476C624.063 276.476 636.832 271.906 639.07 264.222C641.308 256.538 636.336 214.306 636.336 214.306C636.336 214.306 632.578 194.623 622.028 199.97Z" fill="black"/>
<path opacity="0.03" d="M620.462 198.011C620.462 198.011 608.215 221.344 609.65 230.203C611.086 239.062 615.118 249.102 613.161 251.452C612.493 252.341 611.628 253.063 610.633 253.56C609.639 254.058 608.543 254.317 607.432 254.318C605.475 254.449 600.255 258.098 600.255 258.49C600.255 258.882 595.433 258.882 591.12 260.703C586.807 262.525 580.439 263.569 580.439 263.569C580.439 263.569 568.043 263.177 566.894 264.352C565.746 265.528 564.545 272.565 567.025 278.166C569.504 283.768 572.244 287.959 574.319 288.723C576.394 289.487 589.561 285.073 600.242 284.035C610.923 282.997 622.517 274.517 622.517 274.517C622.517 274.517 635.279 269.947 637.491 262.27C639.703 254.593 634.757 212.348 634.757 212.348C634.757 212.348 631.012 192.671 620.462 198.011Z" fill="black"/>
<path d="M621.643 198.795C621.643 198.795 609.396 222.127 610.831 230.986C612.267 239.845 616.299 249.886 614.348 252.229C613.68 253.12 612.814 253.844 611.819 254.342C610.824 254.841 609.726 255.101 608.613 255.102C606.655 255.232 601.436 258.882 601.436 259.267C601.436 259.652 596.621 259.659 592.301 261.487C587.982 263.314 581.62 264.352 581.62 264.352C581.62 264.352 569.224 263.961 568.069 265.136C566.914 266.311 565.726 273.349 568.199 278.95C570.672 284.551 573.419 288.742 575.494 289.506C577.569 290.27 590.735 285.857 601.416 284.812C612.097 283.768 623.691 275.3 623.691 275.3C623.691 275.3 636.46 270.731 638.698 263.047C640.936 255.363 635.997 213.131 635.997 213.131C635.997 213.131 632.186 193.481 621.643 198.795Z" fill="white"/>
<path opacity="0.1" d="M621.375 261.376C621.375 261.376 611.588 259.417 614.994 262.681C618.4 265.945 618.38 268.805 622.55 268.674C626.719 268.544 621.375 261.376 621.375 261.376Z" fill="black"/>
<path opacity="0.1" d="M637.915 331.608C637.915 331.608 633.491 334.604 641.954 341.511C650.416 348.418 637.915 331.608 637.915 331.608Z" fill="black"/>
<path opacity="0.1" d="M629.472 356.239C629.472 356.631 627.906 370.601 633.765 374.094C639.625 377.587 629.472 356.239 629.472 356.239Z" fill="black"/>
<path d="M536.444 246.745C531.72 246.909 521.515 248.351 526.807 258.229C531.485 266.97 539.347 261.127 543.771 256.695C542.692 252.562 540.069 249.001 536.444 246.745Z" fill="#FFB0B1"/>
<path d="M543.83 256.618L544.027 256.414L543.83 256.618Z" fill="#FFB0B1"/>
<path opacity="0.1" d="M620.077 186.299C615.066 189.727 610.864 192.619 610.042 193.22C607.797 194.884 603.517 204.657 600.757 209.645C598.558 213.66 591.414 214.691 588.719 214.946L589.065 211.962C595.192 209.221 599.883 200.486 599.883 200.486L611.993 179.242L616.162 183.035C616.162 183.035 617.728 184.341 620.077 186.299Z" fill="black"/>
<path d="M620.077 185.908C615.066 189.335 610.864 192.227 610.042 192.834C607.797 194.493 603.517 204.266 600.757 209.253C598.558 213.268 591.414 214.3 588.719 214.554L589.065 211.571C595.192 208.829 599.883 200.094 599.883 200.094L611.993 178.851L616.162 182.631C616.162 182.631 617.728 183.923 620.077 185.908Z" fill="#DCE7FF"/>
<path d="M610.433 169.274C610.436 173.192 609.248 177.02 607.027 180.248C604.405 184.064 600.501 186.814 596.026 187.997C591.55 189.181 586.799 188.72 582.634 186.698C578.469 184.676 575.166 181.227 573.325 176.977C571.484 172.728 571.227 167.958 572.6 163.535C573.973 159.111 576.885 155.327 580.808 152.868C584.731 150.409 589.405 149.438 593.982 150.133C598.559 150.827 602.735 153.14 605.754 156.652C608.772 160.164 610.432 164.642 610.433 169.274Z" fill="#FFB0B1"/>
<path opacity="0.1" d="M644.205 234.394C641.555 232.763 639.397 230.444 637.961 227.683C636.871 225.528 636.147 223.041 634.287 221.513C632.611 220.142 630.373 219.81 628.285 219.196C621.421 217.166 615.666 210.898 615.451 203.743C615.346 200.375 616.397 197.013 615.92 193.677C615.65 191.788 614.899 190.002 613.741 188.486C613.166 187.762 612.536 187.083 611.856 186.456C610.942 185.594 609.983 184.759 609.148 183.845C608.622 183.279 608.162 182.655 607.778 181.984C607.467 181.436 607.216 180.856 607.027 180.254C605.722 176.259 606.91 171.519 605.474 167.478L605.396 167.256C604.855 165.82 603.752 164.384 602.219 164.273C600.685 164.162 599.374 165.435 597.912 166.003C594.852 167.191 591.551 165.167 589 163.104C586.449 161.041 583.571 158.685 580.329 159.142C578.182 159.448 576.485 160.911 574.509 161.668C574.062 161.841 573.602 161.974 573.132 162.066C574.805 157.891 577.879 154.43 581.825 152.276C585.772 150.123 590.345 149.412 594.759 150.266C599.173 151.119 603.151 153.484 606.012 156.954C608.872 160.424 610.436 164.782 610.433 169.28C610.435 170.638 610.293 171.993 610.009 173.321C610.042 173.413 610.074 173.497 610.114 173.589C610.87 175.547 611.725 177.558 612.475 179.295L616.162 182.637C616.162 182.637 617.728 183.943 620.077 185.901C625.185 190.21 634.013 197.796 638.567 202.438C642.574 206.537 643.826 222.427 644.205 234.394Z" fill="black"/>
<path d="M574.28 149.741C575.213 147.841 575.676 145.713 576.792 143.911C578.43 141.3 581.288 139.628 584.224 138.616C591.89 135.972 608.091 132.134 612.932 138.616C613.885 139.922 614.674 141.371 615.992 142.272C616.997 142.958 618.211 143.252 619.313 143.767C622.399 145.217 624.37 148.376 625.42 151.601C626.471 154.826 626.784 158.286 627.554 161.609C628.539 165.872 630.268 169.913 631.991 173.928C634.02 178.668 636.173 183.584 640.088 186.933C645.432 191.503 646.612 197.972 651.571 202.986C657.443 208.94 657.254 218.765 654.227 226.566C653.829 227.591 653.379 228.662 653.535 229.752C653.692 230.842 654.501 231.835 655.264 232.703L658.474 236.326C650.88 238.161 642.287 234.191 638.75 227.226C637.661 225.071 636.936 222.591 635.07 221.056C633.4 219.685 631.156 219.359 629.074 218.745C622.21 216.709 616.455 210.435 616.24 203.28C616.136 199.918 617.186 196.556 616.71 193.226C616.445 191.325 615.692 189.526 614.524 188.003C612.73 185.66 610.022 184.086 608.561 181.475C606.088 177.108 607.967 171.434 606.186 166.747C605.638 165.311 604.542 163.875 603.008 163.764C601.475 163.653 600.163 164.926 598.695 165.494C595.642 166.682 592.34 164.665 589.789 162.595C587.238 160.526 584.361 158.175 581.111 158.639C578.965 158.939 577.275 160.402 575.298 161.165C573.836 161.727 570.874 162.229 569.595 160.996C566.894 158.508 573.151 152.065 574.28 149.741Z" fill="#591D4B"/>
<path opacity="0.1" d="M640.564 225.071C639.468 222.917 638.75 220.436 636.884 218.909C635.214 217.538 632.969 217.205 630.881 216.591C624.024 214.561 618.269 208.287 618.048 201.132C617.943 197.77 618.994 194.401 618.524 191.072C618.251 189.183 617.498 187.396 616.338 185.882C614.537 183.538 611.83 181.965 610.375 179.353C607.902 174.992 609.781 169.319 607.993 164.625C607.452 163.196 606.349 161.759 604.822 161.642C603.295 161.524 601.971 162.811 600.509 163.378C597.456 164.567 594.148 162.543 591.603 160.48C589.059 158.417 586.168 156.06 582.925 156.517C580.779 156.824 579.082 158.286 577.112 159.044C575.65 159.605 572.682 160.114 571.403 158.88C568.715 156.269 574.972 149.839 576.094 147.528C577.027 145.621 577.49 143.5 578.613 141.698C578.671 141.6 578.737 141.502 578.802 141.404C577.962 142.1 577.238 142.924 576.655 143.846C575.539 145.647 575.076 147.763 574.143 149.675C573.014 151.986 566.757 158.437 569.452 161.028C570.757 162.269 573.693 161.759 575.155 161.198C577.112 160.434 578.821 158.972 580.968 158.672C584.23 158.208 587.101 160.565 589.646 162.628C592.19 164.691 595.518 166.714 598.558 165.526C600.02 164.958 601.299 163.679 602.865 163.796C604.431 163.914 605.475 165.344 606.042 166.78C607.823 171.467 605.944 177.14 608.417 181.508C609.879 184.073 612.586 185.679 614.381 188.036C615.548 189.559 616.301 191.358 616.566 193.259C617.043 196.588 615.992 199.95 616.097 203.312C616.312 210.494 622.067 216.741 628.931 218.778C630.999 219.392 633.256 219.718 634.927 221.089C636.799 222.623 637.537 225.104 638.607 227.258C642.143 234.224 650.736 238.193 658.331 236.359L656.817 234.648C650.234 234.746 643.572 230.999 640.564 225.071Z" fill="black"/>
<path opacity="0.1" d="M595.583 195.276C594.728 196.582 592.282 203.267 590.239 209.103C588.328 208.359 586.592 203.613 586.592 203.613L596.784 189.107C597.828 190.543 597.143 192.926 595.583 195.276Z" fill="black"/>
<path d="M595.975 194.884C595.12 196.19 592.673 202.875 590.631 208.711C588.719 207.974 586.984 203.221 586.984 203.221L597.175 188.722C598.219 190.151 597.534 192.541 595.975 194.884Z" fill="#DCE7FF"/>
<path d="M536.718 261.578L531.067 243.749C531 243.54 530.975 243.32 530.994 243.102C531.012 242.883 531.073 242.671 531.174 242.476C531.274 242.281 531.413 242.108 531.58 241.967C531.748 241.826 531.942 241.719 532.15 241.653C532.571 241.522 533.026 241.562 533.417 241.765C533.808 241.968 534.103 242.317 534.238 242.737L539.889 260.546L539.328 264.274L536.718 261.578Z" fill="#BE8B87"/>
<path opacity="0.1" d="M531.602 242.182C532.024 242.049 532.481 242.088 532.873 242.291C533.266 242.494 533.562 242.845 533.697 243.266L539.347 261.075L538.923 263.869L539.334 264.3L539.895 260.573L534.212 242.763C534.077 242.344 533.782 241.994 533.391 241.791C533 241.588 532.545 241.548 532.124 241.679C531.771 241.794 531.465 242.024 531.257 242.332C531.368 242.273 531.483 242.223 531.602 242.182Z" fill="white"/>
<path d="M536.718 261.578L539.889 260.573L539.425 263.628L539.328 264.3L538.401 263.334L536.718 261.578Z" fill="#EFC8C4"/>
<path d="M538.401 263.334C538.456 263.264 538.525 263.206 538.603 263.164C538.649 263.135 538.702 263.12 538.757 263.12C538.811 263.12 538.864 263.135 538.91 263.164C538.954 263.218 538.992 263.277 539.021 263.341C539.064 263.413 539.123 263.474 539.193 263.52C539.263 263.567 539.342 263.597 539.425 263.608L539.328 264.261L538.401 263.334Z" fill="#727A9C"/>
<path d="M531.035 250.081C531.035 250.081 542.368 250.016 539.699 254.841C537.031 259.665 532.862 260.246 532.862 260.246L531.035 250.081Z" fill="#FFB0B1"/>
<path d="M460.549 33.5688H460.06C440.59 33.5688 423.372 43.877 413.467 59.0881C403.563 43.877 386.344 33.5688 366.875 33.5688H366.385C351.774 33.7081 337.808 39.6114 327.522 49.9959C317.236 60.3804 311.462 74.4068 311.454 89.0271C311.454 107.182 319.401 132.943 334.897 154.141C364.421 194.532 413.467 229.87 413.467 229.87C413.467 229.87 462.513 194.538 492.03 154.141C507.533 132.943 515.473 107.182 515.473 89.0271C515.466 74.4079 509.692 60.3824 499.408 49.9982C489.124 39.6139 475.159 33.7098 460.549 33.5688ZM453.548 157.248C451.331 157.24 449.168 156.561 447.343 155.3C445.518 154.04 444.117 152.256 443.324 150.185H431.684C430.917 150.18 430.172 149.936 429.55 149.486C428.929 149.037 428.464 148.405 428.219 147.678L424.644 136.899L413.33 176.455C413.11 177.216 412.649 177.886 412.016 178.362C411.383 178.839 410.612 179.098 409.82 179.099H409.591C408.765 179.059 407.977 178.736 407.359 178.185C406.742 177.633 406.332 176.887 406.199 176.07L394.539 105.903L386.018 147.423C385.823 148.212 385.369 148.912 384.729 149.413C384.089 149.914 383.3 150.185 382.488 150.185H366.092C365.6 150.205 365.109 150.127 364.649 149.953C364.189 149.779 363.769 149.514 363.413 149.173C363.058 148.832 362.776 148.423 362.583 147.971C362.39 147.518 362.29 147.031 362.29 146.539C362.29 146.046 362.39 145.559 362.583 145.106C362.776 144.654 363.058 144.245 363.413 143.904C363.769 143.563 364.189 143.298 364.649 143.124C365.109 142.951 365.6 142.872 366.092 142.893H379.617L391.688 87.0686C391.886 86.2433 392.365 85.5124 393.042 85.001C393.719 84.4896 394.552 84.2294 395.4 84.2648C396.247 84.3003 397.056 84.6292 397.688 85.1954C398.32 85.7616 398.736 86.5299 398.865 87.3689L410.772 158.946L420.912 123.556C421.123 122.81 421.569 122.153 422.184 121.683C422.799 121.212 423.55 120.953 424.324 120.944H424.396C425.163 120.944 425.91 121.187 426.531 121.637C427.152 122.087 427.615 122.722 427.854 123.451L434.32 142.912H443.18C443.81 140.997 444.957 139.293 446.493 137.989C448.03 136.685 449.897 135.831 451.888 135.521C453.879 135.212 455.917 135.458 457.776 136.234C459.636 137.01 461.245 138.285 462.427 139.919C463.608 141.552 464.315 143.48 464.47 145.49C464.626 147.5 464.223 149.514 463.306 151.31C462.39 153.105 460.995 154.612 459.277 155.665C457.558 156.717 455.583 157.274 453.568 157.274L453.548 157.248Z" fill="#FFC107"/>
</g>
<defs>
<linearGradient id="paint0_linear" x1="232.493" y1="505.862" x2="232.493" y2="104.147" gradientUnits="userSpaceOnUse">
<stop stop-color="#808080" stop-opacity="0.25"/>
<stop offset="0.54" stop-color="#808080" stop-opacity="0.12"/>
<stop offset="1" stop-color="#808080" stop-opacity="0.1"/>
</linearGradient>
<linearGradient id="paint1_linear" x1="145640" y1="303100" x2="145640" y2="96895.6" gradientUnits="userSpaceOnUse">
<stop stop-color="#808080" stop-opacity="0.25"/>
<stop offset="0.54" stop-color="#808080" stop-opacity="0.12"/>
<stop offset="1" stop-color="#808080" stop-opacity="0.1"/>
</linearGradient>
<clipPath id="clip0">
<rect width="721" height="511" fill="white"/>
</clipPath>
</defs>
</svg>
